<svg width="18" height="19" viewBox="0 0 18 19" fill="none" xmlns="http://www.w3.org/2000/svg">
<path d="M16.3836 15.0562C15.9559 14.0386 15.3351 13.1144 14.5559 12.3349C13.7791 11.5531 12.8589 10.9298 11.8461 10.4994C11.837 10.4948 11.828 10.4926 11.8189 10.488C13.2316 9.46324 14.15 7.794 14.15 5.91071C14.15 2.79085 11.633 0.263092 8.52632 0.263092C5.41967 0.263092 2.90261 2.79085 2.90261 5.91071C2.90261 7.794 3.821 9.46324 5.23373 10.4903C5.22466 10.4948 5.21559 10.4971 5.20652 10.5017C4.19062 10.9321 3.27904 11.5492 2.49671 12.3371C1.71826 13.1173 1.0976 14.0414 0.669005 15.0585C0.247958 16.0542 0.0208779 17.1218 5.67042e-05 18.2034C-0.000548536 18.2277 0.00369652 18.2519 0.0125418 18.2745C0.0213872 18.2971 0.0346537 18.3177 0.0515598 18.3351C0.0684659 18.3526 0.0886695 18.3664 0.11098 18.3758C0.133291 18.3853 0.157257 18.3901 0.181466 18.3901H1.54204C1.64182 18.3901 1.72118 18.3104 1.72345 18.2125C1.7688 16.4544 2.47176 14.808 3.71442 13.56C5.00016 12.2688 6.70768 11.5583 8.52632 11.5583C10.3449 11.5583 12.0525 12.2688 13.3382 13.56C14.5809 14.808 15.2838 16.4544 15.3292 18.2125C15.3314 18.3127 15.4108 18.3901 15.5106 18.3901H16.8712C16.8954 18.3901 16.9193 18.3853 16.9417 18.3758C16.964 18.3664 16.9842 18.3526 17.0011 18.3351C17.018 18.3177 17.0312 18.2971 17.0401 18.2745C17.0489 18.2519 17.0532 18.2277 17.0526 18.2034C17.0299 17.1148 16.8054 16.0559 16.3836 15.0562V15.0562ZM8.52632 9.8276C7.48548 9.8276 6.50586 9.41997 5.76889 8.67986C5.03191 7.93975 4.62601 6.95597 4.62601 5.91071C4.62601 4.86544 5.03191 3.88166 5.76889 3.14155C6.50586 2.40144 7.48548 1.99381 8.52632 1.99381C9.56715 1.99381 10.5468 2.40144 11.2837 3.14155C12.0207 3.88166 12.4266 4.86544 12.4266 5.91071C12.4266 6.95597 12.0207 7.93975 11.2837 8.67986C10.5468 9.41997 9.56715 9.8276 8.52632 9.8276Z" fill="#FDF5FF"/>
</svg>
