<svg width="7" height="9" viewBox="0 0 7 9" fill="none" xmlns="http://www.w3.org/2000/svg">
<path fill-rule="evenodd" clip-rule="evenodd" d="M3.50059 8.4404C3.36798 8.4404 3.2408 8.38735 3.14704 8.29292C3.05327 8.19849 3.00059 8.07041 3.00059 7.93687L3.00059 2.10299L0.854589 4.26514C0.808101 4.31196 0.752912 4.3491 0.692173 4.37443C0.631433 4.39977 0.566333 4.41281 0.500589 4.41281C0.434845 4.41281 0.369745 4.39977 0.309006 4.37443C0.248266 4.3491 0.193077 4.31196 0.146589 4.26514C0.100101 4.21833 0.0632249 4.16275 0.0380658 4.10158C0.0129067 4.04041 -4.20509e-05 3.97485 -4.20451e-05 3.90864C-4.20394e-05 3.84244 0.0129067 3.77688 0.0380658 3.71571C0.0632249 3.65454 0.100101 3.59896 0.146589 3.55215L3.14659 0.530978C3.19304 0.484086 3.24821 0.446883 3.30896 0.421499C3.3697 0.396115 3.43482 0.383048 3.50059 0.383048C3.56636 0.383048 3.63148 0.396115 3.69222 0.421499C3.75297 0.446883 3.80814 0.484086 3.85459 0.530978L6.85459 3.55215C6.90108 3.59896 6.93795 3.65454 6.96311 3.71571C6.98827 3.77688 7.00122 3.84244 7.00122 3.90865C7.00122 3.97485 6.98827 4.04041 6.96311 4.10158C6.93795 4.16275 6.90108 4.21833 6.85459 4.26514C6.7607 4.35969 6.63336 4.41281 6.50059 4.41281C6.43485 4.41281 6.36975 4.39977 6.30901 4.37443C6.24827 4.3491 6.19308 4.31196 6.14659 4.26514L4.00059 2.10299L4.00059 7.93687C4.00059 8.07041 3.94791 8.19849 3.85414 8.29292C3.76037 8.38735 3.6332 8.4404 3.50059 8.4404Z" fill="#55CE1B"/>
</svg>
