<svg width="17" height="19" viewBox="0 0 17 19" fill="none" xmlns="http://www.w3.org/2000/svg">
<path d="M1.8 18.376H14.4C15.3927 18.376 16.2 17.563 16.2 16.5633V6.59345C16.2 6.35307 16.1052 6.12254 15.9364 5.95256C15.7676 5.78259 15.5387 5.6871 15.3 5.6871H12.6V4.78075C12.6 2.28194 10.5813 0.248993 8.1 0.248993C5.6187 0.248993 3.6 2.28194 3.6 4.78075V5.6871H0.9C0.661305 5.6871 0.432387 5.78259 0.263604 5.95256C0.0948211 6.12254 0 6.35307 0 6.59345V16.5633C0 17.563 0.8073 18.376 1.8 18.376ZM5.4 4.78075C5.4 3.28164 6.6114 2.06169 8.1 2.06169C9.5886 2.06169 10.8 3.28164 10.8 4.78075V5.6871H5.4V4.78075ZM1.8 7.4998H3.6V9.3125H5.4V7.4998H10.8V9.3125H12.6V7.4998H14.4L14.4018 16.5633H1.8V7.4998Z" fill="white"/>
</svg>
