<svg width="14" height="15" viewBox="0 0 14 15" fill="none" xmlns="http://www.w3.org/2000/svg">
<path d="M10.4046 4.25202L3.73796 4.25202M7.07129 7.44103H3.73796M2.07129 0.895161H12.0713C12.6236 0.895161 13.0713 1.34604 13.0713 1.90222V12.8897C13.0713 13.5872 12.3842 14.0735 11.7326 13.8372L10.1184 13.252C9.87435 13.1636 9.60576 13.174 9.36927 13.2812L7.48165 14.1366C7.22068 14.2549 6.9219 14.2549 6.66092 14.1366L4.77331 13.2812C4.53682 13.174 4.26823 13.1636 4.02422 13.252L2.41001 13.8372C1.75835 14.0735 1.07129 13.5872 1.07129 12.8897V1.90222C1.07129 1.34603 1.519 0.895161 2.07129 0.895161Z" stroke="#836E89" stroke-width="1.5" stroke-linecap="round"/>
</svg>
