<svg width="18" height="19" viewBox="0 0 18 19" fill="none" xmlns="http://www.w3.org/2000/svg">
<path d="M8.18182 6.84063H11.4545C11.6715 6.84063 11.8796 6.75382 12.0331 6.5993C12.1865 6.44478 12.2727 6.2352 12.2727 6.01668C12.2727 5.79815 12.1865 5.58858 12.0331 5.43405C11.8796 5.27953 11.6715 5.19272 11.4545 5.19272H9.81818V4.36877C9.81818 4.15024 9.73198 3.94067 9.57854 3.78614C9.4251 3.63162 9.217 3.54481 9 3.54481C8.78301 3.54481 8.5749 3.63162 8.42146 3.78614C8.26802 3.94067 8.18182 4.15024 8.18182 4.36877V5.19272C7.53083 5.19272 6.90651 5.45315 6.44619 5.91672C5.98588 6.38028 5.72728 7.00901 5.72728 7.66459C5.72728 8.32017 5.98588 8.9489 6.44619 9.41246C6.90651 9.87603 7.53083 10.1365 8.18182 10.1365H9.81818C10.0352 10.1365 10.2433 10.2233 10.3967 10.3778C10.5502 10.5323 10.6364 10.7419 10.6364 10.9604C10.6364 11.1789 10.5502 11.3885 10.3967 11.543C10.2433 11.6976 10.0352 11.7844 9.81818 11.7844H6.54546C6.32846 11.7844 6.12035 11.8712 5.96692 12.0257C5.81348 12.1802 5.72728 12.3898 5.72728 12.6083C5.72728 12.8268 5.81348 13.0364 5.96692 13.1909C6.12035 13.3455 6.32846 13.4323 6.54546 13.4323H8.18182V14.2562C8.18182 14.4748 8.26802 14.6843 8.42146 14.8389C8.5749 14.9934 8.78301 15.0802 9 15.0802C9.217 15.0802 9.4251 14.9934 9.57854 14.8389C9.73198 14.6843 9.81818 14.4748 9.81818 14.2562V13.4323C10.4692 13.4323 11.0935 13.1718 11.5538 12.7083C12.0141 12.2447 12.2727 11.616 12.2727 10.9604C12.2727 10.3048 12.0141 9.6761 11.5538 9.21254C11.0935 8.74897 10.4692 8.48854 9.81818 8.48854H8.18182C7.96482 8.48854 7.75672 8.40173 7.60328 8.24721C7.44984 8.09269 7.36364 7.88311 7.36364 7.66459C7.36364 7.44606 7.44984 7.23649 7.60328 7.08196C7.75672 6.92744 7.96482 6.84063 8.18182 6.84063ZM9 0.248993C7.21997 0.248993 5.47991 0.780558 3.99987 1.77647C2.51983 2.77238 1.36628 4.18791 0.685088 5.84404C0.00389957 7.50018 -0.17433 9.32255 0.172936 11.0807C0.520203 12.8388 1.37737 14.4538 2.63604 15.7214C3.89471 16.9889 5.49836 17.8521 7.24419 18.2018C8.99002 18.5516 10.7996 18.3721 12.4442 17.6861C14.0887 17.0001 15.4943 15.8384 16.4832 14.3479C17.4722 12.8574 18 11.1051 18 9.3125C18 6.90871 17.0518 4.60337 15.364 2.90363C13.6761 1.2039 11.3869 0.248993 9 0.248993ZM9 16.7281C7.54361 16.7281 6.11993 16.2932 4.90899 15.4783C3.69804 14.6635 2.75423 13.5053 2.19689 12.1503C1.63955 10.7953 1.49373 9.30427 1.77786 7.86579C2.06198 6.4273 2.7633 5.10597 3.79313 4.06888C4.82295 3.03179 6.13502 2.32552 7.56343 2.03939C8.99183 1.75326 10.4724 1.90011 11.8179 2.46138C13.1635 3.02265 14.3135 3.97313 15.1226 5.19261C15.9318 6.4121 16.3636 7.84583 16.3636 9.3125C16.3636 11.2792 15.5878 13.1654 14.2069 14.5561C12.8259 15.9468 10.953 16.7281 9 16.7281Z" fill="#FFF6F2"/>
</svg>
