<svg width="19" height="19" viewBox="0 0 19 19" fill="none" xmlns="http://www.w3.org/2000/svg">
<ellipse cx="9.07129" cy="9.72782" rx="1.5" ry="1.51058" stroke="#836E89" stroke-width="1.5"/>
<path d="M4.12015 5.10481C3.42285 5.86169 2.91651 6.75989 2.62169 7.7222L3.0896 7.99425C4.4159 8.7654 4.41153 10.6928 3.08172 11.4659L2.6204 11.7342C2.76681 12.21 2.96778 12.677 3.22556 13.1266C3.48332 13.5762 3.78439 13.985 4.1204 14.3506L4.58174 14.0824C5.91155 13.3092 7.57119 14.269 7.57119 15.8113L7.57119 16.3555C8.54614 16.5795 9.57172 16.587 10.5713 16.3573L10.5713 15.8297C10.5713 14.2833 12.2388 13.3138 13.5686 14.087L14.0223 14.3508C14.7196 13.5939 15.2259 12.6957 15.5208 11.7334L15.0528 11.4613C13.7265 10.6902 13.7309 8.76282 15.0607 7.98963L15.522 7.7214C15.3756 7.24555 15.1747 6.7786 14.9169 6.32899C14.6591 5.87936 14.358 5.4706 14.022 5.10499L13.5607 5.37321C12.2309 6.1464 10.5713 5.18653 10.5713 3.64423L10.5713 3.10012C9.5963 2.87609 8.57072 2.86859 7.57119 3.09829L7.57119 3.62589C7.57119 5.17225 5.90366 6.14179 4.57386 5.36861L4.12015 5.10481Z" stroke="#836E89" stroke-width="1.5" stroke-linejoin="round"/>
</svg>
