<svg width="4" height="18" viewBox="0 0 4 18" fill="none" xmlns="http://www.w3.org/2000/svg">
<path d="M1.6 4.20543C2.48366 4.20543 3.2 3.48403 3.2 2.59414C3.2 1.70425 2.48366 0.982849 1.6 0.982849C0.716344 0.982849 0 1.70425 0 2.59414C0 3.48403 0.716344 4.20543 1.6 4.20543Z" fill="#310E3A"/>
<path d="M1.6 10.6506C2.48366 10.6506 3.2 9.92922 3.2 9.03933C3.2 8.14944 2.48366 7.42804 1.6 7.42804C0.716344 7.42804 0 8.14944 0 9.03933C0 9.92922 0.716344 10.6506 1.6 10.6506Z" fill="#310E3A"/>
<path d="M1.6 17.0957C2.48366 17.0957 3.2 16.3743 3.2 15.4844C3.2 14.5946 2.48366 13.8732 1.6 13.8732C0.716344 13.8732 0 14.5946 0 15.4844C0 16.3743 0.716344 17.0957 1.6 17.0957Z" fill="#310E3A"/>
</svg>
