<svg width="14" height="14" viewBox="0 0 14 14" fill="none" xmlns="http://www.w3.org/2000/svg">
<path fill-rule="evenodd" clip-rule="evenodd" d="M2.70304 0.691982C3.26297 0.244035 3.95869 -7.62939e-06 4.67575 -7.62939e-06L9.00613 -7.15256e-07C9.72319 2.38419e-07 10.4189 0.244042 10.9788 0.691985L12.8773 2.21073C13.3408 2.58154 13.6106 3.14293 13.6106 3.7365V10.3814C13.6106 12.1255 12.1968 13.5393 10.4527 13.5393H3.22915C1.48511 13.5393 0.0712891 12.1255 0.0712891 10.3814V3.7365C0.0712891 3.14292 0.341106 2.58154 0.804606 2.21074L2.70304 0.691982ZM4.67575 1.49999C4.29929 1.49999 3.93405 1.62811 3.64009 1.86328L2.95938 2.40785H5.03504H8.64683H10.7225L10.0418 1.86329C9.74782 1.62812 9.38258 1.5 9.00613 1.5L4.67575 1.49999ZM12.1106 3.90785H9.39683V4.96375C9.39683 6.37533 8.25252 7.51964 6.84094 7.51964C5.42936 7.51964 4.28504 6.37533 4.28504 4.96375V3.90785H1.57129V10.3814C1.57129 11.297 2.31354 12.0393 3.22915 12.0393H10.4527C11.3683 12.0393 12.1106 11.297 12.1106 10.3814V3.90785ZM5.78504 3.90785V4.96375C5.78504 5.5469 6.25778 6.01964 6.84094 6.01964C7.42409 6.01964 7.89683 5.5469 7.89683 4.96375V3.90785H5.78504Z" fill="#836E89"/>
</svg>
