<svg width="7" height="9" viewBox="0 0 7 9" fill="none" xmlns="http://www.w3.org/2000/svg">
<path fill-rule="evenodd" clip-rule="evenodd" d="M3.50063 0.368958C3.63324 0.368958 3.76042 0.422008 3.85419 0.516438C3.94795 0.610867 4.00063 0.738942 4.00063 0.872486L4.00063 6.70636L6.14663 4.54421C6.19312 4.4974 6.24831 4.46026 6.30905 4.43492C6.36979 4.40959 6.43489 4.39655 6.50063 4.39655C6.56638 4.39655 6.63148 4.40959 6.69222 4.43492C6.75295 4.46026 6.80814 4.4974 6.85463 4.54421C6.90112 4.59103 6.938 4.64661 6.96316 4.70778C6.98831 4.76894 7.00126 4.8345 7.00126 4.90071C7.00126 4.96692 6.98831 5.03248 6.96316 5.09365C6.938 5.15481 6.90112 5.21039 6.85463 5.25721L3.85463 8.27838C3.80819 8.32527 3.75301 8.36247 3.69227 8.38786C3.63152 8.41324 3.5664 8.42631 3.50063 8.42631C3.43486 8.42631 3.36974 8.41324 3.309 8.38786C3.24825 8.36247 3.19308 8.32527 3.14663 8.27838L0.146632 5.25721C0.100144 5.21039 0.0632674 5.15481 0.0381083 5.09365C0.0129493 5.03248 0 4.96692 0 4.90071C0 4.8345 0.0129493 4.76894 0.0381083 4.70778C0.0632674 4.64661 0.100144 4.59103 0.146632 4.54421C0.240518 4.44966 0.367856 4.39655 0.500632 4.39655C0.566376 4.39655 0.631476 4.40959 0.692215 4.43492C0.752955 4.46026 0.808144 4.4974 0.854632 4.54421L3.00063 6.70636L3.00063 0.872486C3.00063 0.738942 3.05331 0.610867 3.14708 0.516438C3.24085 0.422008 3.36802 0.368958 3.50063 0.368958Z" fill="#CE461B"/>
</svg>
